<svg width="519" height="487" viewBox="0 0 519 487" fill="none" xmlns="http://www.w3.org/2000/svg">
<path d="M514.372 192.433C486.147 79.8293 350.889 -83.1123 2.3271e-05 49.7479C213.355 -0.0383828 347.967 96.5385 363.053 161.19C373.014 203.877 344.519 241.68 276.619 260.995L266.927 219.462L254.789 230.082L61.1713 399.272L47.2544 411.42L65.119 416.185L313.62 482.205L329.205 486.355L315.014 425.539C463.522 387.011 535.579 286.841 515.618 197.774C515.225 196.013 514.821 194.222 514.372 192.433ZM468.115 198.273C489.673 285.548 426.385 365.717 289.203 400.441L302.887 459.083L87.8654 401.974L255.397 255.562L271.058 322.678C412.496 287.168 461.082 213.332 412.602 104.379C442.11 135.428 460.464 167.303 468.116 198.271L468.115 198.273Z" fill="black"/>
</svg>
