<svg width="166" height="31" viewBox="0 0 166 31" fill="none" xmlns="http://www.w3.org/2000/svg">
<mask id="path-1-outside-1_13_3625" maskUnits="userSpaceOnUse" x="-0.679932" y="-0.560059" width="167" height="32" fill="black">
<rect fill="white" x="-0.679932" y="-0.560059" width="167" height="32"/>
<path d="M6.76007 27.0799C6.76007 28.8666 5.82674 29.7599 3.96007 29.7599C3.0534 29.7599 2.3334 29.5333 1.80007 29.0799C1.26674 28.6266 1.00007 27.9599 1.00007 27.0799V10.5599C1.00007 7.41327 1.66674 5.03994 3.00007 3.43994C4.36007 1.81327 6.36007 0.99994 9.00007 0.99994C10.9467 0.99994 12.5601 1.39994 13.8401 2.19994C15.1201 2.99994 15.9734 4.14661 16.4001 5.63994C16.8267 4.14661 17.6801 2.99994 18.9601 2.19994C20.2401 1.39994 21.8801 0.99994 23.8801 0.99994C26.6001 0.99994 28.6134 1.78661 29.9201 3.35994C31.2267 4.90661 31.8801 7.30661 31.8801 10.5599V26.6799C31.8801 27.7733 31.6667 28.5599 31.2401 29.0399C30.8134 29.5199 30.0934 29.7599 29.0801 29.7599C28.0667 29.7599 27.3201 29.5199 26.8401 29.0399C26.3601 28.5333 26.1201 27.7466 26.1201 26.6799V10.2399C26.1201 7.59994 24.9867 6.27994 22.7201 6.27994C21.5734 6.27994 20.7201 6.66661 20.1601 7.43994C19.6001 8.18661 19.3201 9.38661 19.3201 11.0399V26.2799C19.3201 27.3733 19.1067 28.1599 18.6801 28.6399C18.2534 29.1199 17.5334 29.3599 16.5201 29.3599C15.5067 29.3599 14.7601 29.1199 14.2801 28.6399C13.8001 28.1333 13.5601 27.3466 13.5601 26.2799V11.0399C13.5601 7.86661 12.4267 6.27994 10.1601 6.27994C7.8934 6.27994 6.76007 7.59994 6.76007 10.2399V27.0799ZM45.6138 29.7599C42.9472 29.7599 40.8672 29.1466 39.3738 27.9199C37.8805 26.6666 37.1338 25.0533 37.1338 23.0799C37.1338 20.7599 38.1072 19.0799 40.0538 18.0399C42.0272 16.9999 44.9072 16.6399 48.6938 16.9599C48.5072 15.7333 48.1205 14.9066 47.5338 14.4799C46.9472 14.0266 46.2405 13.7999 45.4138 13.7999C44.7472 13.7999 44.1872 13.8399 43.7338 13.9199C43.3072 13.9733 42.9072 14.0399 42.5338 14.1199C42.1605 14.1999 41.7072 14.2399 41.1738 14.2399C40.4538 14.2399 39.8805 14.1199 39.4538 13.8799C39.0272 13.6133 38.8138 13.0933 38.8138 12.3199C38.8138 11.2266 39.2805 10.4266 40.2138 9.91994C41.1738 9.38661 42.6805 9.11994 44.7338 9.11994C47.9872 9.11994 50.4005 10.0533 51.9738 11.9199C53.5472 13.7599 54.3338 16.2266 54.3338 19.3199C54.3338 22.8933 53.6805 25.5333 52.3738 27.2399C51.0938 28.9199 48.8405 29.7599 45.6138 29.7599ZM42.8938 23.0799C42.8938 24.5999 43.9205 25.3599 45.9738 25.3599C46.6405 25.3599 47.1605 25.2399 47.5338 24.9999C47.9072 24.7599 48.1738 24.2799 48.3338 23.5599C48.5205 22.8399 48.6538 21.7599 48.7338 20.3199C48.6005 20.4533 48.4272 20.5466 48.2138 20.5999C48.0005 20.6533 47.7872 20.6799 47.5738 20.6799C45.8138 20.6799 44.5872 20.8533 43.8938 21.1999C43.2272 21.5199 42.8938 22.1466 42.8938 23.0799ZM65.3385 15.5599C65.3385 18.7333 65.7252 21.0133 66.4985 22.3999C67.2718 23.7599 68.4185 24.4399 69.9385 24.4399C70.8985 24.4399 71.7385 24.3733 72.4585 24.2399C73.1785 24.0799 73.8318 23.9999 74.4185 23.9999C75.4852 23.9999 76.2585 24.2266 76.7385 24.6799C77.2185 25.1066 77.4585 25.6666 77.4585 26.3599C77.4585 27.2666 77.1252 27.9599 76.4585 28.4399C75.8185 28.9199 74.9918 29.2533 73.9785 29.4399C72.9918 29.6266 71.9785 29.7199 70.9385 29.7199C68.0585 29.7199 65.7652 29.1866 64.0585 28.1199C62.3785 27.0533 61.1652 25.4799 60.4185 23.3999C59.6985 21.2933 59.3385 18.6799 59.3385 15.5599C59.3385 12.4399 59.6985 9.79994 60.4185 7.63994C61.1652 5.45327 62.3785 3.79994 64.0585 2.67994C65.7652 1.55994 68.0585 0.99994 70.9385 0.99994C71.9785 0.99994 72.9918 1.09327 73.9785 1.27994C74.9918 1.46661 75.8185 1.79994 76.4585 2.27994C77.1252 2.75994 77.4585 3.45327 77.4585 4.35994C77.4585 5.02661 77.2185 5.58661 76.7385 6.03994C76.2585 6.49327 75.4852 6.71994 74.4185 6.71994C73.8318 6.71994 73.1785 6.65327 72.4585 6.51994C71.7385 6.35994 70.8985 6.27994 69.9385 6.27994C68.0718 6.27994 66.8318 7.03994 66.2185 8.55994C65.6318 10.0533 65.3385 12.3866 65.3385 15.5599ZM88.1498 29.7599C85.4831 29.7599 83.4031 29.1466 81.9098 27.9199C80.4164 26.6666 79.6698 25.0533 79.6698 23.0799C79.6698 20.7599 80.6431 19.0799 82.5898 18.0399C84.5631 16.9999 87.4431 16.6399 91.2298 16.9599C91.0431 15.7333 90.6564 14.9066 90.0698 14.4799C89.4831 14.0266 88.7764 13.7999 87.9498 13.7999C87.2831 13.7999 86.7231 13.8399 86.2698 13.9199C85.8431 13.9733 85.4431 14.0399 85.0698 14.1199C84.6964 14.1999 84.2431 14.2399 83.7098 14.2399C82.9898 14.2399 82.4164 14.1199 81.9898 13.8799C81.5631 13.6133 81.3498 13.0933 81.3498 12.3199C81.3498 11.2266 81.8164 10.4266 82.7498 9.91994C83.7098 9.38661 85.2164 9.11994 87.2698 9.11994C90.5231 9.11994 92.9364 10.0533 94.5098 11.9199C96.0831 13.7599 96.8698 16.2266 96.8698 19.3199C96.8698 22.8933 96.2164 25.5333 94.9098 27.2399C93.6298 28.9199 91.3764 29.7599 88.1498 29.7599ZM85.4298 23.0799C85.4298 24.5999 86.4564 25.3599 88.5098 25.3599C89.1764 25.3599 89.6964 25.2399 90.0698 24.9999C90.4431 24.7599 90.7098 24.2799 90.8698 23.5599C91.0564 22.8399 91.1898 21.7599 91.2698 20.3199C91.1364 20.4533 90.9631 20.5466 90.7498 20.5999C90.5364 20.6533 90.3231 20.6799 90.1098 20.6799C88.3498 20.6799 87.1231 20.8533 86.4298 21.1999C85.7631 21.5199 85.4298 22.1466 85.4298 23.0799ZM105.196 29.7599C103.276 29.7599 102.316 28.8533 102.316 27.0399V11.8799C102.316 10.0399 103.276 9.11994 105.196 9.11994C106.156 9.11994 106.85 9.33327 107.276 9.75994C107.703 10.1599 107.916 10.8266 107.916 11.7599C108.396 10.8799 109.076 10.2266 109.956 9.79994C110.863 9.34661 111.916 9.11994 113.116 9.11994C115.41 9.11994 116.556 10.1199 116.556 12.1199C116.556 12.8666 116.276 13.4266 115.716 13.7999C115.156 14.1733 114.236 14.3599 112.956 14.3599C111.703 14.3599 110.716 14.4799 109.996 14.7199C109.276 14.9333 108.77 15.3466 108.476 15.9599C108.21 16.5466 108.076 17.3999 108.076 18.5199V27.0399C108.076 28.8533 107.116 29.7599 105.196 29.7599ZM130.331 29.7599C128.011 29.7599 126.038 29.3066 124.411 28.3999C122.784 27.4666 121.544 25.9466 120.691 23.8399C119.864 21.7333 119.451 18.8799 119.451 15.2799C119.451 11.6799 119.864 8.83994 120.691 6.75994C121.544 4.67994 122.784 3.19994 124.411 2.31994C126.038 1.43994 128.011 0.99994 130.331 0.99994C132.678 0.99994 134.651 1.43994 136.251 2.31994C137.878 3.19994 139.104 4.67994 139.931 6.75994C140.784 8.83994 141.211 11.6799 141.211 15.2799C141.211 18.8799 140.784 21.7333 139.931 23.8399C139.104 25.9466 137.878 27.4666 136.251 28.3999C134.651 29.3066 132.678 29.7599 130.331 29.7599ZM130.331 24.4799C131.398 24.4799 132.304 24.2266 133.051 23.7199C133.824 23.2133 134.411 22.2933 134.811 20.9599C135.238 19.6266 135.451 17.7333 135.451 15.2799C135.451 12.7999 135.238 10.9199 134.811 9.63994C134.411 8.33327 133.824 7.45327 133.051 6.99994C132.304 6.51994 131.398 6.27994 130.331 6.27994C129.291 6.27994 128.384 6.51994 127.611 6.99994C126.838 7.45327 126.238 8.33327 125.811 9.63994C125.411 10.9199 125.211 12.7999 125.211 15.2799C125.211 17.7333 125.411 19.6266 125.811 20.9599C126.238 22.2933 126.838 23.2133 127.611 23.7199C128.384 24.2266 129.291 24.4799 130.331 24.4799ZM149.451 29.7599C147.531 29.7599 146.571 28.8533 146.571 27.0399V17.4399C146.571 14.8799 147.384 12.8533 149.011 11.3599C150.664 9.86661 152.838 9.11994 155.531 9.11994C158.224 9.11994 160.384 9.86661 162.011 11.3599C163.664 12.8533 164.491 14.8799 164.491 17.4399V27.0399C164.491 28.8533 163.531 29.7599 161.611 29.7599C159.691 29.7599 158.731 28.8533 158.731 27.0399V17.7599C158.731 16.5066 158.451 15.5599 157.891 14.9199C157.331 14.2533 156.544 13.9199 155.531 13.9199C154.518 13.9199 153.731 14.2533 153.171 14.9199C152.611 15.5599 152.331 16.5066 152.331 17.7599V27.0399C152.331 28.8533 151.371 29.7599 149.451 29.7599Z"/>
</mask>
<path d="M6.76007 27.0799C6.76007 28.8666 5.82674 29.7599 3.96007 29.7599C3.0534 29.7599 2.3334 29.5333 1.80007 29.0799C1.26674 28.6266 1.00007 27.9599 1.00007 27.0799V10.5599C1.00007 7.41327 1.66674 5.03994 3.00007 3.43994C4.36007 1.81327 6.36007 0.99994 9.00007 0.99994C10.9467 0.99994 12.5601 1.39994 13.8401 2.19994C15.1201 2.99994 15.9734 4.14661 16.4001 5.63994C16.8267 4.14661 17.6801 2.99994 18.9601 2.19994C20.2401 1.39994 21.8801 0.99994 23.8801 0.99994C26.6001 0.99994 28.6134 1.78661 29.9201 3.35994C31.2267 4.90661 31.8801 7.30661 31.8801 10.5599V26.6799C31.8801 27.7733 31.6667 28.5599 31.2401 29.0399C30.8134 29.5199 30.0934 29.7599 29.0801 29.7599C28.0667 29.7599 27.3201 29.5199 26.8401 29.0399C26.3601 28.5333 26.1201 27.7466 26.1201 26.6799V10.2399C26.1201 7.59994 24.9867 6.27994 22.7201 6.27994C21.5734 6.27994 20.7201 6.66661 20.1601 7.43994C19.6001 8.18661 19.3201 9.38661 19.3201 11.0399V26.2799C19.3201 27.3733 19.1067 28.1599 18.6801 28.6399C18.2534 29.1199 17.5334 29.3599 16.5201 29.3599C15.5067 29.3599 14.7601 29.1199 14.2801 28.6399C13.8001 28.1333 13.5601 27.3466 13.5601 26.2799V11.0399C13.5601 7.86661 12.4267 6.27994 10.1601 6.27994C7.8934 6.27994 6.76007 7.59994 6.76007 10.2399V27.0799ZM45.6138 29.7599C42.9472 29.7599 40.8672 29.1466 39.3738 27.9199C37.8805 26.6666 37.1338 25.0533 37.1338 23.0799C37.1338 20.7599 38.1072 19.0799 40.0538 18.0399C42.0272 16.9999 44.9072 16.6399 48.6938 16.9599C48.5072 15.7333 48.1205 14.9066 47.5338 14.4799C46.9472 14.0266 46.2405 13.7999 45.4138 13.7999C44.7472 13.7999 44.1872 13.8399 43.7338 13.9199C43.3072 13.9733 42.9072 14.0399 42.5338 14.1199C42.1605 14.1999 41.7072 14.2399 41.1738 14.2399C40.4538 14.2399 39.8805 14.1199 39.4538 13.8799C39.0272 13.6133 38.8138 13.0933 38.8138 12.3199C38.8138 11.2266 39.2805 10.4266 40.2138 9.91994C41.1738 9.38661 42.6805 9.11994 44.7338 9.11994C47.9872 9.11994 50.4005 10.0533 51.9738 11.9199C53.5472 13.7599 54.3338 16.2266 54.3338 19.3199C54.3338 22.8933 53.6805 25.5333 52.3738 27.2399C51.0938 28.9199 48.8405 29.7599 45.6138 29.7599ZM42.8938 23.0799C42.8938 24.5999 43.9205 25.3599 45.9738 25.3599C46.6405 25.3599 47.1605 25.2399 47.5338 24.9999C47.9072 24.7599 48.1738 24.2799 48.3338 23.5599C48.5205 22.8399 48.6538 21.7599 48.7338 20.3199C48.6005 20.4533 48.4272 20.5466 48.2138 20.5999C48.0005 20.6533 47.7872 20.6799 47.5738 20.6799C45.8138 20.6799 44.5872 20.8533 43.8938 21.1999C43.2272 21.5199 42.8938 22.1466 42.8938 23.0799ZM65.3385 15.5599C65.3385 18.7333 65.7252 21.0133 66.4985 22.3999C67.2718 23.7599 68.4185 24.4399 69.9385 24.4399C70.8985 24.4399 71.7385 24.3733 72.4585 24.2399C73.1785 24.0799 73.8318 23.9999 74.4185 23.9999C75.4852 23.9999 76.2585 24.2266 76.7385 24.6799C77.2185 25.1066 77.4585 25.6666 77.4585 26.3599C77.4585 27.2666 77.1252 27.9599 76.4585 28.4399C75.8185 28.9199 74.9918 29.2533 73.9785 29.4399C72.9918 29.6266 71.9785 29.7199 70.9385 29.7199C68.0585 29.7199 65.7652 29.1866 64.0585 28.1199C62.3785 27.0533 61.1652 25.4799 60.4185 23.3999C59.6985 21.2933 59.3385 18.6799 59.3385 15.5599C59.3385 12.4399 59.6985 9.79994 60.4185 7.63994C61.1652 5.45327 62.3785 3.79994 64.0585 2.67994C65.7652 1.55994 68.0585 0.99994 70.9385 0.99994C71.9785 0.99994 72.9918 1.09327 73.9785 1.27994C74.9918 1.46661 75.8185 1.79994 76.4585 2.27994C77.1252 2.75994 77.4585 3.45327 77.4585 4.35994C77.4585 5.02661 77.2185 5.58661 76.7385 6.03994C76.2585 6.49327 75.4852 6.71994 74.4185 6.71994C73.8318 6.71994 73.1785 6.65327 72.4585 6.51994C71.7385 6.35994 70.8985 6.27994 69.9385 6.27994C68.0718 6.27994 66.8318 7.03994 66.2185 8.55994C65.6318 10.0533 65.3385 12.3866 65.3385 15.5599ZM88.1498 29.7599C85.4831 29.7599 83.4031 29.1466 81.9098 27.9199C80.4164 26.6666 79.6698 25.0533 79.6698 23.0799C79.6698 20.7599 80.6431 19.0799 82.5898 18.0399C84.5631 16.9999 87.4431 16.6399 91.2298 16.9599C91.0431 15.7333 90.6564 14.9066 90.0698 14.4799C89.4831 14.0266 88.7764 13.7999 87.9498 13.7999C87.2831 13.7999 86.7231 13.8399 86.2698 13.9199C85.8431 13.9733 85.4431 14.0399 85.0698 14.1199C84.6964 14.1999 84.2431 14.2399 83.7098 14.2399C82.9898 14.2399 82.4164 14.1199 81.9898 13.8799C81.5631 13.6133 81.3498 13.0933 81.3498 12.3199C81.3498 11.2266 81.8164 10.4266 82.7498 9.91994C83.7098 9.38661 85.2164 9.11994 87.2698 9.11994C90.5231 9.11994 92.9364 10.0533 94.5098 11.9199C96.0831 13.7599 96.8698 16.2266 96.8698 19.3199C96.8698 22.8933 96.2164 25.5333 94.9098 27.2399C93.6298 28.9199 91.3764 29.7599 88.1498 29.7599ZM85.4298 23.0799C85.4298 24.5999 86.4564 25.3599 88.5098 25.3599C89.1764 25.3599 89.6964 25.2399 90.0698 24.9999C90.4431 24.7599 90.7098 24.2799 90.8698 23.5599C91.0564 22.8399 91.1898 21.7599 91.2698 20.3199C91.1364 20.4533 90.9631 20.5466 90.7498 20.5999C90.5364 20.6533 90.3231 20.6799 90.1098 20.6799C88.3498 20.6799 87.1231 20.8533 86.4298 21.1999C85.7631 21.5199 85.4298 22.1466 85.4298 23.0799ZM105.196 29.7599C103.276 29.7599 102.316 28.8533 102.316 27.0399V11.8799C102.316 10.0399 103.276 9.11994 105.196 9.11994C106.156 9.11994 106.85 9.33327 107.276 9.75994C107.703 10.1599 107.916 10.8266 107.916 11.7599C108.396 10.8799 109.076 10.2266 109.956 9.79994C110.863 9.34661 111.916 9.11994 113.116 9.11994C115.41 9.11994 116.556 10.1199 116.556 12.1199C116.556 12.8666 116.276 13.4266 115.716 13.7999C115.156 14.1733 114.236 14.3599 112.956 14.3599C111.703 14.3599 110.716 14.4799 109.996 14.7199C109.276 14.9333 108.77 15.3466 108.476 15.9599C108.21 16.5466 108.076 17.3999 108.076 18.5199V27.0399C108.076 28.8533 107.116 29.7599 105.196 29.7599ZM130.331 29.7599C128.011 29.7599 126.038 29.3066 124.411 28.3999C122.784 27.4666 121.544 25.9466 120.691 23.8399C119.864 21.7333 119.451 18.8799 119.451 15.2799C119.451 11.6799 119.864 8.83994 120.691 6.75994C121.544 4.67994 122.784 3.19994 124.411 2.31994C126.038 1.43994 128.011 0.99994 130.331 0.99994C132.678 0.99994 134.651 1.43994 136.251 2.31994C137.878 3.19994 139.104 4.67994 139.931 6.75994C140.784 8.83994 141.211 11.6799 141.211 15.2799C141.211 18.8799 140.784 21.7333 139.931 23.8399C139.104 25.9466 137.878 27.4666 136.251 28.3999C134.651 29.3066 132.678 29.7599 130.331 29.7599ZM130.331 24.4799C131.398 24.4799 132.304 24.2266 133.051 23.7199C133.824 23.2133 134.411 22.2933 134.811 20.9599C135.238 19.6266 135.451 17.7333 135.451 15.2799C135.451 12.7999 135.238 10.9199 134.811 9.63994C134.411 8.33327 133.824 7.45327 133.051 6.99994C132.304 6.51994 131.398 6.27994 130.331 6.27994C129.291 6.27994 128.384 6.51994 127.611 6.99994C126.838 7.45327 126.238 8.33327 125.811 9.63994C125.411 10.9199 125.211 12.7999 125.211 15.2799C125.211 17.7333 125.411 19.6266 125.811 20.9599C126.238 22.2933 126.838 23.2133 127.611 23.7199C128.384 24.2266 129.291 24.4799 130.331 24.4799ZM149.451 29.7599C147.531 29.7599 146.571 28.8533 146.571 27.0399V17.4399C146.571 14.8799 147.384 12.8533 149.011 11.3599C150.664 9.86661 152.838 9.11994 155.531 9.11994C158.224 9.11994 160.384 9.86661 162.011 11.3599C163.664 12.8533 164.491 14.8799 164.491 17.4399V27.0399C164.491 28.8533 163.531 29.7599 161.611 29.7599C159.691 29.7599 158.731 28.8533 158.731 27.0399V17.7599C158.731 16.5066 158.451 15.5599 157.891 14.9199C157.331 14.2533 156.544 13.9199 155.531 13.9199C154.518 13.9199 153.731 14.2533 153.171 14.9199C152.611 15.5599 152.331 16.5066 152.331 17.7599V27.0399C152.331 28.8533 151.371 29.7599 149.451 29.7599Z" fill="black"/>
<path d="M1.80007 29.0799L2.44772 28.318V28.318L1.80007 29.0799ZM3.00007 3.43994L2.23288 2.79852L2.23185 2.79976L3.00007 3.43994ZM13.8401 2.19994L14.3701 1.35194V1.35194L13.8401 2.19994ZM16.4001 5.63994L15.4385 5.91466L16.4001 9.27999L17.3616 5.91466L16.4001 5.63994ZM18.9601 2.19994L18.4301 1.35194V1.35194L18.9601 2.19994ZM29.9201 3.35994L29.1508 3.99887L29.1562 4.00529L29.9201 3.35994ZM31.2401 29.0399L30.4927 28.3756V28.3756L31.2401 29.0399ZM26.8401 29.0399L26.1141 29.7277L26.1234 29.7375L26.133 29.747L26.8401 29.0399ZM20.1601 7.43994L20.9601 8.03994L20.9651 8.03324L20.97 8.02645L20.1601 7.43994ZM18.6801 28.6399L17.9327 27.9756V27.9756L18.6801 28.6399ZM14.2801 28.6399L13.5541 29.3277L13.5634 29.3375L13.573 29.347L14.2801 28.6399ZM6.76007 27.0799H5.76007C5.76007 27.8077 5.57223 28.1726 5.36861 28.3675C5.15681 28.5702 4.74994 28.7599 3.96007 28.7599V29.7599V30.7599C5.03686 30.7599 6.02999 30.503 6.75153 29.8124C7.48124 29.1139 7.76007 28.1388 7.76007 27.0799H6.76007ZM3.96007 29.7599V28.7599C3.21927 28.7599 2.75241 28.577 2.44772 28.318L1.80007 29.0799L1.15242 29.8419C1.9144 30.4896 2.88753 30.7599 3.96007 30.7599V29.7599ZM1.80007 29.0799L2.44772 28.318C2.19346 28.1019 2.00007 27.7483 2.00007 27.0799H1.00007H6.84261e-05C6.84261e-05 28.1716 0.340014 29.1513 1.15242 29.8419L1.80007 29.0799ZM1.00007 27.0799H2.00007V10.5599H1.00007H6.84261e-05V27.0799H1.00007ZM1.00007 10.5599H2.00007C2.00007 7.53246 2.64463 5.42851 3.76829 4.08012L3.00007 3.43994L2.23185 2.79976C0.688838 4.65137 6.84261e-05 7.29409 6.84261e-05 10.5599H1.00007ZM3.00007 3.43994L3.76726 4.08136C4.89177 2.73635 6.57719 1.99994 9.00007 1.99994V0.999941V-5.91278e-05C6.14295 -5.91278e-05 3.82836 0.890196 2.23288 2.79852L3.00007 3.43994ZM9.00007 0.999941V1.99994C10.8128 1.99994 12.229 2.37224 13.3101 3.04794L13.8401 2.19994L14.3701 1.35194C12.8912 0.427639 11.0807 -5.91278e-05 9.00007 -5.91278e-05V0.999941ZM13.8401 2.19994L13.3101 3.04794C14.3737 3.71269 15.0777 4.65165 15.4385 5.91466L16.4001 5.63994L17.3616 5.36522C16.8691 3.64157 15.8665 2.28719 14.3701 1.35194L13.8401 2.19994ZM16.4001 5.63994L17.3616 5.91466C17.7225 4.65165 18.4265 3.71269 19.4901 3.04794L18.9601 2.19994L18.4301 1.35194C16.9337 2.28719 15.931 3.64157 15.4385 5.36522L16.4001 5.63994ZM18.9601 2.19994L19.4901 3.04794C20.5673 2.37466 22.008 1.99994 23.8801 1.99994V0.999941V-5.91278e-05C21.7521 -5.91278e-05 19.9128 0.425219 18.4301 1.35194L18.9601 2.19994ZM23.8801 0.999941V1.99994C26.4073 1.99994 28.0921 2.72411 29.1508 3.99884L29.9201 3.35994L30.6894 2.72104C29.1347 0.849108 26.7928 -5.91278e-05 23.8801 -5.91278e-05V0.999941ZM29.9201 3.35994L29.1562 4.00529C30.2417 5.29015 30.8801 7.40839 30.8801 10.5599H31.8801H32.8801C32.8801 7.20483 32.2118 4.52307 30.684 2.71459L29.9201 3.35994ZM31.8801 10.5599H30.8801V26.6799H31.8801H32.8801V10.5599H31.8801ZM31.8801 26.6799H30.8801C30.8801 27.6868 30.6755 28.1699 30.4927 28.3756L31.2401 29.0399L31.9875 29.7043C32.658 28.95 32.8801 27.8597 32.8801 26.6799H31.8801ZM31.2401 29.0399L30.4927 28.3756C30.3421 28.5449 29.9705 28.7599 29.0801 28.7599V29.7599V30.7599C30.2163 30.7599 31.2847 30.495 31.9875 29.7043L31.2401 29.0399ZM29.0801 29.7599V28.7599C28.2026 28.7599 27.7646 28.5502 27.5472 28.3328L26.8401 29.0399L26.133 29.747C26.8756 30.4897 27.9309 30.7599 29.0801 30.7599V29.7599ZM26.8401 29.0399L27.566 28.3522C27.3354 28.1087 27.1201 27.6223 27.1201 26.6799H26.1201H25.1201C25.1201 27.871 25.3848 28.9578 26.1141 29.7277L26.8401 29.0399ZM26.1201 26.6799H27.1201V10.2399H26.1201H25.1201V26.6799H26.1201ZM26.1201 10.2399H27.1201C27.1201 8.79996 26.8142 7.53334 26.0288 6.61852C25.2183 5.67452 24.0507 5.27994 22.7201 5.27994V6.27994V7.27994C23.6561 7.27994 24.1885 7.54536 24.5114 7.92136C24.8592 8.32654 25.1201 9.03993 25.1201 10.2399H26.1201ZM22.7201 6.27994V5.27994C21.3256 5.27994 20.1372 5.7665 19.3501 6.85343L20.1601 7.43994L20.97 8.02645C21.3029 7.56671 21.8212 7.27994 22.7201 7.27994V6.27994ZM20.1601 7.43994L19.3601 6.83994C18.6032 7.84916 18.3201 9.31812 18.3201 11.0399H19.3201H20.3201C20.3201 9.4551 20.597 8.52406 20.9601 8.03994L20.1601 7.43994ZM19.3201 11.0399H18.3201V26.2799H19.3201H20.3201V11.0399H19.3201ZM19.3201 26.2799H18.3201C18.3201 27.2868 18.1155 27.7699 17.9327 27.9756L18.6801 28.6399L19.4275 29.3043C20.098 28.55 20.3201 27.4597 20.3201 26.2799H19.3201ZM18.6801 28.6399L17.9327 27.9756C17.7821 28.1449 17.4105 28.3599 16.5201 28.3599V29.3599V30.3599C17.6563 30.3599 18.7247 30.095 19.4275 29.3043L18.6801 28.6399ZM16.5201 29.3599V28.3599C15.6426 28.3599 15.2046 28.1502 14.9872 27.9328L14.2801 28.6399L13.573 29.347C14.3156 30.0896 15.3709 30.3599 16.5201 30.3599V29.3599ZM14.2801 28.6399L15.006 27.9522C14.7754 27.7087 14.5601 27.2223 14.5601 26.2799H13.5601H12.5601C12.5601 27.471 12.8248 28.5578 13.5541 29.3277L14.2801 28.6399ZM13.5601 26.2799H14.5601V11.0399H13.5601H12.5601V26.2799H13.5601ZM13.5601 11.0399H14.5601C14.5601 9.36443 14.2663 7.92821 13.5238 6.8887C12.737 5.7872 11.5562 5.27994 10.1601 5.27994V6.27994V7.27994C11.0306 7.27994 11.5498 7.56602 11.8963 8.05118C12.2872 8.59834 12.5601 9.54212 12.5601 11.0399H13.5601ZM10.1601 6.27994V5.27994C8.82941 5.27994 7.66186 5.67452 6.85135 6.61852C6.0659 7.53334 5.76007 8.79996 5.76007 10.2399H6.76007H7.76007C7.76007 9.03993 8.0209 8.32654 8.36878 7.92136C8.69161 7.54536 9.22406 7.27994 10.1601 7.27994V6.27994ZM6.76007 10.2399H5.76007V27.0799H6.76007H7.76007V10.2399H6.76007ZM39.3738 27.9199L38.7309 28.686L38.7391 28.6927L39.3738 27.9199ZM40.0538 18.0399L39.5876 17.1553L39.5826 17.1579L40.0538 18.0399ZM48.6938 16.9599L48.6096 17.9564L49.8732 18.0632L49.6824 16.8095L48.6938 16.9599ZM47.5338 14.4799L46.9224 15.2712L46.9339 15.2801L46.9456 15.2887L47.5338 14.4799ZM43.7338 13.9199L43.8579 14.9122L43.8828 14.9091L43.9076 14.9047L43.7338 13.9199ZM39.4538 13.8799L38.9238 14.7279L38.9434 14.7402L38.9636 14.7515L39.4538 13.8799ZM40.2138 9.91994L40.6909 10.7988L40.6995 10.7941L40.2138 9.91994ZM51.9738 11.9199L51.2092 12.5644L51.2138 12.5698L51.9738 11.9199ZM52.3738 27.2399L51.5798 26.632L51.5784 26.6339L52.3738 27.2399ZM47.5338 24.9999L46.9931 24.1588V24.1588L47.5338 24.9999ZM48.3338 23.5599L47.3658 23.309L47.3614 23.3259L47.3576 23.343L48.3338 23.5599ZM48.7338 20.3199L49.7323 20.3754L49.8775 17.7621L48.0267 19.6128L48.7338 20.3199ZM48.2138 20.5999L47.9713 19.6298V19.6298L48.2138 20.5999ZM43.8938 21.1999L44.3265 22.1015L44.3338 22.098L44.341 22.0944L43.8938 21.1999ZM45.6138 29.7599V28.7599C43.0914 28.7599 41.2655 28.1797 40.0086 27.1472L39.3738 27.9199L38.7391 28.6927C40.4688 30.1135 42.8029 30.7599 45.6138 30.7599V29.7599ZM39.3738 27.9199L40.0167 27.154C38.7529 26.0933 38.1338 24.7619 38.1338 23.0799H37.1338H36.1338C36.1338 25.3447 37.0081 27.2399 38.7309 28.6859L39.3738 27.9199ZM37.1338 23.0799H38.1338C38.1338 22.0616 38.3465 21.2417 38.7291 20.5812C39.1101 19.9235 39.6929 19.3665 40.525 18.922L40.0538 18.0399L39.5826 17.1579C38.468 17.7534 37.5908 18.5564 36.9985 19.5786C36.4078 20.5982 36.1338 21.7783 36.1338 23.0799H37.1338ZM40.0538 18.0399L40.5201 18.9246C42.2432 18.0165 44.8946 17.6424 48.6096 17.9564L48.6938 16.9599L48.778 15.9635C44.9197 15.6374 41.8111 15.9834 39.5876 17.1553L40.0538 18.0399ZM48.6938 16.9599L49.6824 16.8095C49.4823 15.4944 49.0352 14.3354 48.122 13.6712L47.5338 14.4799L46.9456 15.2887C47.2057 15.4778 47.532 15.9721 47.7052 17.1104L48.6938 16.9599ZM47.5338 14.4799L48.1453 13.6887C47.3634 13.0845 46.4349 12.7999 45.4138 12.7999V13.7999V14.7999C46.046 14.7999 46.5309 14.9688 46.9224 15.2712L47.5338 14.4799ZM45.4138 13.7999V12.7999C44.7123 12.7999 44.0899 12.8416 43.56 12.9352L43.7338 13.9199L43.9076 14.9047C44.2844 14.8382 44.782 14.7999 45.4138 14.7999V13.7999ZM43.7338 13.9199L43.6098 12.9277C43.1579 12.9841 42.7292 13.0554 42.3243 13.1421L42.5338 14.1199L42.7433 15.0977C43.0851 15.0245 43.4564 14.9624 43.8579 14.9122L43.7338 13.9199ZM42.5338 14.1199L42.3243 13.1421C42.0409 13.2029 41.6622 13.2399 41.1738 13.2399V14.2399V15.2399C41.7521 15.2399 42.2801 15.197 42.7433 15.0977L42.5338 14.1199ZM41.1738 14.2399V13.2399C40.5503 13.2399 40.1669 13.1337 39.9441 13.0084L39.4538 13.8799L38.9636 14.7515C39.5941 15.1062 40.3573 15.2399 41.1738 15.2399V14.2399ZM39.4538 13.8799L39.9838 13.0319C39.9685 13.0224 39.9359 13.0004 39.899 12.9104C39.8565 12.8069 39.8138 12.6221 39.8138 12.3199H38.8138H37.8138C37.8138 13.2417 38.07 14.1943 38.9238 14.7279L39.4538 13.8799ZM38.8138 12.3199H39.8138C39.8138 11.9181 39.8984 11.6253 40.0276 11.4038C40.1559 11.1839 40.361 10.9779 40.6909 10.7988L40.2138 9.91994L39.7367 9.04109C39.1333 9.36864 38.6384 9.816 38.3 10.3961C37.9626 10.9746 37.8138 11.6284 37.8138 12.3199H38.8138ZM40.2138 9.91994L40.6995 10.7941C41.4309 10.3877 42.7263 10.1199 44.7338 10.1199V9.11994V8.11994C42.6347 8.11994 40.9167 8.38547 39.7282 9.04578L40.2138 9.91994ZM44.7338 9.11994V10.1199C47.7965 10.1199 49.8841 10.9923 51.2092 12.5644L51.9738 11.9199L52.7384 11.2755C50.9169 9.11428 48.1778 8.11994 44.7338 8.11994V9.11994ZM51.9738 11.9199L51.2138 12.5698C52.5932 14.1831 53.3338 16.3971 53.3338 19.3199H54.3338H55.3338C55.3338 16.0561 54.5011 13.3368 52.7338 11.2701L51.9738 11.9199ZM54.3338 19.3199H53.3338C53.3338 22.8065 52.6899 25.1821 51.5798 26.632L52.3738 27.2399L53.1678 27.8479C54.6711 25.8844 55.3338 22.9801 55.3338 19.3199H54.3338ZM52.3738 27.2399L51.5784 26.6339C50.5706 27.9566 48.6974 28.7599 45.6138 28.7599V29.7599V30.7599C48.9836 30.7599 51.617 29.8833 53.1693 27.846L52.3738 27.2399ZM42.8938 23.0799H41.8938C41.8938 24.0889 42.2506 24.988 43.0688 25.5937C43.8308 26.1577 44.853 26.3599 45.9738 26.3599V25.3599V24.3599C45.0413 24.3599 44.5235 24.1822 44.2588 23.9862C44.0504 23.8319 43.8938 23.591 43.8938 23.0799H42.8938ZM45.9738 25.3599V26.3599C46.7423 26.3599 47.4781 26.2246 48.0746 25.8411L47.5338 24.9999L46.9931 24.1588C46.8429 24.2553 46.5387 24.3599 45.9738 24.3599V25.3599ZM47.5338 24.9999L48.0746 25.8411C48.7778 25.389 49.1286 24.5932 49.31 23.7769L48.3338 23.5599L47.3576 23.343C47.219 23.9667 47.0365 24.1308 46.9931 24.1588L47.5338 24.9999ZM48.3338 23.5599L49.3018 23.8109C49.514 22.9923 49.6513 21.8322 49.7323 20.3754L48.7338 20.3199L47.7354 20.2645C47.6563 21.6877 47.5269 22.6876 47.3658 23.309L48.3338 23.5599ZM48.7338 20.3199L48.0267 19.6128C48.0318 19.6077 48.0345 19.6069 48.0297 19.6095C48.0242 19.6125 48.0066 19.621 47.9713 19.6298L48.2138 20.5999L48.4564 21.5701C48.8159 21.4802 49.1594 21.3085 49.4409 21.027L48.7338 20.3199ZM48.2138 20.5999L47.9713 19.6298C47.8348 19.6639 47.7029 19.6799 47.5738 19.6799V20.6799V21.6799C47.8714 21.6799 48.1661 21.6426 48.4564 21.5701L48.2138 20.5999ZM47.5738 20.6799V19.6799C45.8079 19.6799 44.369 19.8443 43.4466 20.3055L43.8938 21.1999L44.341 22.0944C44.8053 21.8622 45.8197 21.6799 47.5738 21.6799V20.6799ZM43.8938 21.1999L43.4611 20.2984C42.9441 20.5466 42.5322 20.9305 42.2609 21.4403C41.997 21.9366 41.8938 22.4993 41.8938 23.0799H42.8938H43.8938C43.8938 22.7273 43.9573 22.51 44.0267 22.3796C44.0888 22.2628 44.1769 22.1733 44.3265 22.1015L43.8938 21.1999ZM66.4985 22.3999L65.6251 22.887L65.6292 22.8942L66.4985 22.3999ZM72.4585 24.2399L72.6406 25.2232L72.6581 25.22L72.6754 25.2161L72.4585 24.2399ZM76.7385 24.6799L76.0519 25.407L76.0629 25.4173L76.0741 25.4274L76.7385 24.6799ZM76.4585 28.4399L75.8742 27.6284L75.8663 27.6341L75.8585 27.6399L76.4585 28.4399ZM73.9785 29.4399L73.7973 28.4565L73.7926 28.4574L73.9785 29.4399ZM64.0585 28.1199L63.5225 28.9642L63.5285 28.9679L64.0585 28.1199ZM60.4185 23.3999L59.4722 23.7233L59.4747 23.7306L59.4773 23.7378L60.4185 23.3999ZM60.4185 7.63994L59.4721 7.31679L59.4698 7.32371L60.4185 7.63994ZM64.0585 2.67994L63.5098 1.84387L63.5038 1.84789L64.0585 2.67994ZM73.9785 1.27994L73.7926 2.26252L73.7973 2.26339L73.9785 1.27994ZM76.4585 2.27994L75.8585 3.07994L75.8663 3.08578L75.8742 3.09147L76.4585 2.27994ZM76.7385 6.03994L76.0519 5.31293V5.31293L76.7385 6.03994ZM72.4585 6.51994L72.2416 7.49613L72.2589 7.49998L72.2764 7.50322L72.4585 6.51994ZM66.2185 8.55994L65.2911 8.18573L65.2878 8.19429L66.2185 8.55994ZM65.3385 15.5599H64.3385C64.3385 18.7652 64.7205 21.2649 65.6251 22.887L66.4985 22.3999L67.3719 21.9129C66.7298 20.7617 66.3385 18.7014 66.3385 15.5599H65.3385ZM66.4985 22.3999L65.6292 22.8942C66.5739 24.5555 68.046 25.4399 69.9385 25.4399V24.4399V23.4399C68.791 23.4399 67.9698 22.9644 67.3678 21.9056L66.4985 22.3999ZM69.9385 24.4399V25.4399C70.9419 25.4399 71.8454 25.3705 72.6406 25.2232L72.4585 24.2399L72.2764 23.2567C71.6317 23.3761 70.8551 23.4399 69.9385 23.4399V24.4399ZM72.4585 24.2399L72.6754 25.2161C73.3415 25.0681 73.9206 24.9999 74.4185 24.9999V23.9999V22.9999C73.7431 22.9999 73.0155 23.0918 72.2416 23.2638L72.4585 24.2399ZM74.4185 23.9999V24.9999C75.3792 24.9999 75.8433 25.2099 76.0519 25.407L76.7385 24.6799L77.4251 23.9529C76.6737 23.2433 75.5911 22.9999 74.4185 22.9999V23.9999ZM76.7385 24.6799L76.0741 25.4274C76.3222 25.6479 76.4585 25.9266 76.4585 26.3599H77.4585H78.4585C78.4585 25.4066 78.1148 24.5653 77.4029 23.9325L76.7385 24.6799ZM77.4585 26.3599H76.4585C76.4585 26.9837 76.2499 27.3579 75.8742 27.6284L76.4585 28.4399L77.0428 29.2515C78.0004 28.562 78.4585 27.5495 78.4585 26.3599H77.4585ZM76.4585 28.4399L75.8585 27.6399C75.3724 28.0045 74.7011 28.29 73.7973 28.4565L73.9785 29.4399L74.1597 30.4234C75.2826 30.2165 76.2646 29.8354 77.0585 29.2399L76.4585 28.4399ZM73.9785 29.4399L73.7926 28.4574C72.8694 28.632 71.9184 28.7199 70.9385 28.7199V29.7199V30.7199C72.0387 30.7199 73.1143 30.6212 74.1644 30.4225L73.9785 29.4399ZM70.9385 29.7199V28.7199C68.1693 28.7199 66.0818 28.2053 64.5885 27.2719L64.0585 28.1199L63.5285 28.9679C65.4485 30.168 67.9478 30.7199 70.9385 30.7199V29.7199ZM64.0585 28.1199L64.5945 27.2757C63.1229 26.3414 62.0401 24.9574 61.3597 23.0621L60.4185 23.3999L59.4773 23.7378C60.2903 26.0025 61.6341 27.7652 63.5225 28.9642L64.0585 28.1199ZM60.4185 23.3999L61.3648 23.0765C60.6915 21.1065 60.3385 18.6106 60.3385 15.5599H59.3385H58.3385C58.3385 18.7493 58.7055 21.48 59.4722 23.7233L60.4185 23.3999ZM59.3385 15.5599H60.3385C60.3385 12.5105 60.6912 9.98426 61.3672 7.95617L60.4185 7.63994L59.4698 7.32371C58.7059 9.61562 58.3385 12.3694 58.3385 15.5599H59.3385ZM60.4185 7.63994L61.3649 7.96309C62.0512 5.95307 63.142 4.4928 64.6132 3.51199L64.0585 2.67994L63.5038 1.84789C61.615 3.10708 60.2791 4.95348 59.4722 7.3168L60.4185 7.63994ZM64.0585 2.67994L64.6072 3.51599C66.0967 2.53848 68.1767 1.99994 70.9385 1.99994V0.999941V-5.91278e-05C67.9403 -5.91278e-05 65.4336 0.581404 63.5098 1.84389L64.0585 2.67994ZM70.9385 0.999941V1.99994C71.9184 1.99994 72.8694 2.08784 73.7926 2.26251L73.9785 1.27994L74.1644 0.297369C73.1143 0.0987034 72.0387 -5.91278e-05 70.9385 -5.91278e-05V0.999941ZM73.9785 1.27994L73.7973 2.26339C74.7011 2.42987 75.3724 2.71537 75.8585 3.07994L76.4585 2.27994L77.0585 1.47994C76.2646 0.88451 75.2826 0.503344 74.1597 0.296486L73.9785 1.27994ZM76.4585 2.27994L75.8742 3.09147C76.2499 3.362 76.4585 3.73615 76.4585 4.35994H77.4585H78.4585C78.4585 3.17039 78.0004 2.15788 77.0428 1.46841L76.4585 2.27994ZM77.4585 4.35994H76.4585C76.4585 4.75452 76.3297 5.05058 76.0519 5.31293L76.7385 6.03994L77.4251 6.76695C78.1074 6.12263 78.4585 5.29869 78.4585 4.35994H77.4585ZM76.7385 6.03994L76.0519 5.31293C75.8433 5.50994 75.3792 5.71994 74.4185 5.71994V6.71994V7.71994C75.5911 7.71994 76.6737 7.47661 77.4251 6.76695L76.7385 6.03994ZM74.4185 6.71994V5.71994C73.9057 5.71994 73.3146 5.66148 72.6406 5.53666L72.4585 6.51994L72.2764 7.50322C73.0424 7.64507 73.7579 7.71994 74.4185 7.71994V6.71994ZM72.4585 6.51994L72.6754 5.54375C71.8666 5.36401 70.9509 5.27994 69.9385 5.27994V6.27994V7.27994C70.8461 7.27994 71.6104 7.35587 72.2416 7.49613L72.4585 6.51994ZM69.9385 6.27994V5.27994C68.8722 5.27994 67.902 5.49719 67.0859 5.99734C66.2604 6.50334 65.6674 7.25344 65.2912 8.18575L66.2185 8.55994L67.1459 8.93414C67.383 8.34644 67.7166 7.95654 68.1311 7.70254C68.555 7.44269 69.1381 7.27994 69.9385 7.27994V6.27994ZM66.2185 8.55994L65.2878 8.19429C64.6296 9.86964 64.3385 12.3595 64.3385 15.5599H65.3385H66.3385C66.3385 12.4137 66.6341 10.2369 67.1493 8.92559L66.2185 8.55994ZM81.9098 27.9199L81.2669 28.686L81.275 28.6927L81.9098 27.9199ZM82.5898 18.0399L82.1235 17.1553L82.1185 17.1579L82.5898 18.0399ZM91.2298 16.9599L91.1456 17.9564L92.4092 18.0632L92.2184 16.8095L91.2298 16.9599ZM90.0698 14.4799L89.4583 15.2712L89.4698 15.2801L89.4816 15.2887L90.0698 14.4799ZM86.2698 13.9199L86.3938 14.9122L86.4188 14.9091L86.4435 14.9047L86.2698 13.9199ZM81.9898 13.8799L81.4598 14.7279L81.4794 14.7402L81.4995 14.7515L81.9898 13.8799ZM82.7498 9.91994L83.2269 10.7988L83.2354 10.7941L82.7498 9.91994ZM94.5098 11.9199L93.7451 12.5644L93.7497 12.5698L94.5098 11.9199ZM94.9098 27.2399L94.1158 26.632L94.1143 26.6339L94.9098 27.2399ZM90.0698 24.9999L89.529 24.1588V24.1588L90.0698 24.9999ZM90.8698 23.5599L89.9018 23.309L89.8974 23.3259L89.8936 23.343L90.8698 23.5599ZM91.2698 20.3199L92.2682 20.3754L92.4134 17.7621L90.5627 19.6128L91.2698 20.3199ZM90.7498 20.5999L90.5072 19.6298V19.6298L90.7498 20.5999ZM86.4298 21.1999L86.8625 22.1015L86.8698 22.098L86.877 22.0944L86.4298 21.1999ZM88.1498 29.7599V28.7599C85.6273 28.7599 83.8015 28.1797 82.5445 27.1472L81.9098 27.9199L81.275 28.6927C83.0047 30.1135 85.3388 30.7599 88.1498 30.7599V29.7599ZM81.9098 27.9199L82.5526 27.154C81.2889 26.0933 80.6698 24.7619 80.6698 23.0799H79.6698H78.6698C78.6698 25.3447 79.544 27.2399 81.2669 28.6859L81.9098 27.9199ZM79.6698 23.0799H80.6698C80.6698 22.0616 80.8824 21.2417 81.265 20.5812C81.6461 19.9235 82.2289 19.3665 83.061 18.922L82.5898 18.0399L82.1185 17.1579C81.004 17.7534 80.1268 18.5564 79.5345 19.5786C78.9438 20.5982 78.6698 21.7783 78.6698 23.0799H79.6698ZM82.5898 18.0399L83.056 18.9246C84.7791 18.0165 87.4305 17.6424 91.1456 17.9564L91.2298 16.9599L91.314 15.9635C87.4557 15.6374 84.3471 15.9834 82.1235 17.1553L82.5898 18.0399ZM91.2298 16.9599L92.2184 16.8095C92.0183 15.4944 91.5712 14.3354 90.6579 13.6712L90.0698 14.4799L89.4816 15.2887C89.7417 15.4778 90.0679 15.9721 90.2411 17.1104L91.2298 16.9599ZM90.0698 14.4799L90.6812 13.6887C89.8993 13.0845 88.9709 12.7999 87.9498 12.7999V13.7999V14.7999C88.582 14.7999 89.0669 14.9688 89.4583 15.2712L90.0698 14.4799ZM87.9498 13.7999V12.7999C87.2482 12.7999 86.6259 12.8416 86.096 12.9352L86.2698 13.9199L86.4435 14.9047C86.8203 14.8382 87.3179 14.7999 87.9498 14.7999V13.7999ZM86.2698 13.9199L86.1457 12.9277C85.6939 12.9841 85.2651 13.0554 84.8602 13.1421L85.0698 14.1199L85.2793 15.0977C85.6211 15.0245 85.9923 14.9624 86.3938 14.9122L86.2698 13.9199ZM85.0698 14.1199L84.8602 13.1421C84.5769 13.2029 84.1981 13.2399 83.7098 13.2399V14.2399V15.2399C84.2881 15.2399 84.816 15.197 85.2793 15.0977L85.0698 14.1199ZM83.7098 14.2399V13.2399C83.0862 13.2399 82.7028 13.1337 82.48 13.0084L81.9898 13.8799L81.4995 14.7515C82.13 15.1062 82.8933 15.2399 83.7098 15.2399V14.2399ZM81.9898 13.8799L82.5198 13.0319C82.5045 13.0224 82.4719 13.0004 82.4349 12.9104C82.3925 12.8069 82.3498 12.6221 82.3498 12.3199H81.3498H80.3498C80.3498 13.2417 80.606 14.1943 81.4598 14.7279L81.9898 13.8799ZM81.3498 12.3199H82.3498C82.3498 11.9181 82.4343 11.6253 82.5635 11.4038C82.6918 11.1839 82.8969 10.9779 83.2269 10.7988L82.7498 9.91994L82.2727 9.04109C81.6693 9.36864 81.1744 9.816 80.836 10.3961C80.4985 10.9746 80.3498 11.6284 80.3498 12.3199H81.3498ZM82.7498 9.91994L83.2354 10.7941C83.9668 10.3877 85.2622 10.1199 87.2698 10.1199V9.11994V8.11994C85.1706 8.11994 83.4527 8.38547 82.2641 9.04578L82.7498 9.91994ZM87.2698 9.11994V10.1199C90.3325 10.1199 92.42 10.9923 93.7451 12.5644L94.5098 11.9199L95.2744 11.2755C93.4528 9.11428 90.7137 8.11994 87.2698 8.11994V9.11994ZM94.5098 11.9199L93.7497 12.5698C95.1292 14.1831 95.8698 16.3971 95.8698 19.3199H96.8698H97.8698C97.8698 16.0561 97.037 13.3368 95.2698 11.2701L94.5098 11.9199ZM96.8698 19.3199H95.8698C95.8698 22.8065 95.2259 25.1821 94.1158 26.632L94.9098 27.2399L95.7038 27.8479C97.207 25.8844 97.8698 22.9801 97.8698 19.3199H96.8698ZM94.9098 27.2399L94.1143 26.6339C93.1066 27.9566 91.2333 28.7599 88.1498 28.7599V29.7599V30.7599C91.5195 30.7599 94.153 29.8833 95.7052 27.846L94.9098 27.2399ZM85.4298 23.0799H84.4298C84.4298 24.0889 84.7866 24.988 85.6048 25.5937C86.3667 26.1577 87.389 26.3599 88.5098 26.3599V25.3599V24.3599C87.5772 24.3599 87.0595 24.1822 86.7947 23.9862C86.5863 23.8319 86.4298 23.591 86.4298 23.0799H85.4298ZM88.5098 25.3599V26.3599C89.2782 26.3599 90.014 26.2246 90.6105 25.8411L90.0698 24.9999L89.529 24.1588C89.3788 24.2553 89.0746 24.3599 88.5098 24.3599V25.3599ZM90.0698 24.9999L90.6105 25.8411C91.3137 25.389 91.6645 24.5932 91.8459 23.7769L90.8698 23.5599L89.8936 23.343C89.755 23.9667 89.5724 24.1308 89.529 24.1588L90.0698 24.9999ZM90.8698 23.5599L91.8378 23.8109C92.05 22.9923 92.1873 21.8322 92.2682 20.3754L91.2698 20.3199L90.2713 20.2645C90.1922 21.6877 90.0629 22.6876 89.9018 23.309L90.8698 23.5599ZM91.2698 20.3199L90.5627 19.6128C90.5678 19.6077 90.5704 19.6069 90.5657 19.6095C90.5601 19.6125 90.5425 19.621 90.5072 19.6298L90.7498 20.5999L90.9923 21.5701C91.3519 21.4802 91.6954 21.3085 91.9769 21.027L91.2698 20.3199ZM90.7498 20.5999L90.5072 19.6298C90.3708 19.6639 90.2388 19.6799 90.1098 19.6799V20.6799V21.6799C90.4073 21.6799 90.7021 21.6426 90.9923 21.5701L90.7498 20.5999ZM90.1098 20.6799V19.6799C88.3439 19.6799 86.9049 19.8443 85.9825 20.3055L86.4298 21.1999L86.877 22.0944C87.3412 21.8622 88.3556 21.6799 90.1098 21.6799V20.6799ZM86.4298 21.1999L85.997 20.2984C85.48 20.5466 85.0681 20.9305 84.7969 21.4403C84.5329 21.9366 84.4298 22.4993 84.4298 23.0799H85.4298H86.4298C86.4298 22.7273 86.4933 22.51 86.5626 22.3796C86.6248 22.2628 86.7128 22.1733 86.8625 22.1015L86.4298 21.1999ZM107.276 9.75994L106.569 10.467L106.581 10.4784L106.592 10.4895L107.276 9.75994ZM107.916 11.7599H106.916L108.794 12.2388L107.916 11.7599ZM109.956 9.79994L110.393 10.6998L110.404 10.6944L109.956 9.79994ZM115.716 13.7999L115.162 12.9679V12.9679L115.716 13.7999ZM109.996 14.7199L110.28 15.6787L110.297 15.674L110.313 15.6686L109.996 14.7199ZM108.476 15.9599L107.574 15.5285L107.57 15.5373L107.566 15.5461L108.476 15.9599ZM105.196 29.7599V28.7599C104.377 28.7599 103.948 28.5653 103.723 28.3529C103.509 28.1506 103.316 27.7774 103.316 27.0399H102.316H101.316C101.316 28.1158 101.604 29.1026 102.35 29.807C103.085 30.5012 104.096 30.7599 105.196 30.7599V29.7599ZM102.316 27.0399H103.316V11.8799H102.316H101.316V27.0399H102.316ZM102.316 11.8799H103.316C103.316 11.1252 103.511 10.7401 103.728 10.5319C103.953 10.3162 104.38 10.1199 105.196 10.1199V9.11994V8.11994C104.093 8.11994 103.079 8.38373 102.344 9.08795C101.602 9.79979 101.316 10.7947 101.316 11.8799H102.316ZM105.196 9.11994V10.1199C106.042 10.1199 106.415 10.313 106.569 10.467L107.276 9.75994L107.983 9.05283C107.284 8.35357 106.27 8.11994 105.196 8.11994V9.11994ZM107.276 9.75994L106.592 10.4895C106.725 10.6133 106.916 10.9428 106.916 11.7599H107.916H108.916C108.916 10.7105 108.681 9.70654 107.96 9.0304L107.276 9.75994ZM107.916 11.7599L108.794 12.2388C109.177 11.5368 109.705 11.0331 110.393 10.6998L109.956 9.79994L109.52 8.90013C108.448 9.42008 107.616 10.2231 107.038 11.2811L107.916 11.7599ZM109.956 9.79994L110.404 10.6944C111.148 10.3221 112.043 10.1199 113.116 10.1199V9.11994V8.11994C111.789 8.11994 110.578 8.37109 109.509 8.90551L109.956 9.79994ZM113.116 9.11994V10.1199C114.14 10.1199 114.721 10.3461 115.039 10.6236C115.331 10.8783 115.556 11.3124 115.556 12.1199H116.556H117.556C117.556 10.9275 117.208 9.86154 116.354 9.11628C115.525 8.39383 114.386 8.11994 113.116 8.11994V9.11994ZM116.556 12.1199H115.556C115.556 12.5753 115.409 12.8027 115.162 12.9679L115.716 13.7999L116.271 14.632C117.143 14.0505 117.556 13.1579 117.556 12.1199H116.556ZM115.716 13.7999L115.162 12.9679C114.858 13.1705 114.19 13.3599 112.956 13.3599V14.3599V15.3599C114.283 15.3599 115.455 15.176 116.271 14.632L115.716 13.7999ZM112.956 14.3599V13.3599C111.656 13.3599 110.547 13.4823 109.68 13.7713L109.996 14.7199L110.313 15.6686C110.886 15.4775 111.75 15.3599 112.956 15.3599V14.3599ZM109.996 14.7199L109.712 13.7611C108.753 14.0455 108.003 14.6315 107.574 15.5285L108.476 15.9599L109.378 16.3914C109.536 16.0617 109.8 15.821 110.28 15.6787L109.996 14.7199ZM108.476 15.9599L107.566 15.5461C107.212 16.3254 107.076 17.3474 107.076 18.5199H108.076H109.076C109.076 17.4525 109.208 16.7678 109.387 16.3737L108.476 15.9599ZM108.076 18.5199H107.076V27.0399H108.076H109.076V18.5199H108.076ZM108.076 27.0399H107.076C107.076 27.7774 106.884 28.1506 106.67 28.3529C106.445 28.5653 106.016 28.7599 105.196 28.7599V29.7599V30.7599C106.297 30.7599 107.308 30.5012 108.043 29.807C108.789 29.1026 109.076 28.1158 109.076 27.0399H108.076ZM124.411 28.3999L123.913 29.2674L123.924 29.2734L124.411 28.3999ZM120.691 23.8399L119.76 24.2052L119.764 24.2154L120.691 23.8399ZM120.691 6.75994L119.766 6.38036L119.762 6.3906L120.691 6.75994ZM124.411 2.31994L123.935 1.4404V1.4404L124.411 2.31994ZM136.251 2.31994L135.769 3.19618L135.775 3.19948L136.251 2.31994ZM139.931 6.75994L139.002 7.1293L139.006 7.1395L139.931 6.75994ZM139.931 23.8399L139.004 23.4645L139 23.4747L139.931 23.8399ZM136.251 28.3999L136.744 29.27L136.749 29.2673L136.251 28.3999ZM133.051 23.7199L132.503 22.8835L132.496 22.8879L132.49 22.8925L133.051 23.7199ZM134.811 20.9599L133.859 20.6552L133.856 20.6639L133.853 20.6726L134.811 20.9599ZM134.811 9.63994L133.855 9.93265L133.858 9.94446L133.862 9.95617L134.811 9.63994ZM133.051 6.99994L132.51 7.84112L132.528 7.85224L132.545 7.86264L133.051 6.99994ZM127.611 6.99994L128.117 7.86264L128.128 7.85625L128.138 7.84958L127.611 6.99994ZM125.811 9.63994L124.86 9.32951L124.857 9.34167L125.811 9.63994ZM125.811 20.9599L124.853 21.2473L124.856 21.256L124.859 21.2647L125.811 20.9599ZM127.611 23.7199L127.063 24.5564V24.5564L127.611 23.7199ZM130.331 29.7599V28.7599C128.14 28.7599 126.343 28.3321 124.898 27.5265L124.411 28.3999L123.924 29.2734C125.732 30.2811 127.882 30.7599 130.331 30.7599V29.7599ZM124.411 28.3999L124.909 27.5326C123.515 26.7327 122.406 25.4091 121.618 23.4645L120.691 23.8399L119.764 24.2154C120.683 26.4841 122.054 28.2005 123.913 29.2673L124.411 28.3999ZM120.691 23.8399L121.622 23.4747C120.86 21.5326 120.451 18.8201 120.451 15.2799H119.451H118.451C118.451 18.9398 118.869 21.934 119.76 24.2052L120.691 23.8399ZM119.451 15.2799H120.451C120.451 11.7388 120.86 9.04203 121.62 7.12928L120.691 6.75994L119.762 6.3906C118.869 8.63785 118.451 11.6211 118.451 15.2799H119.451ZM120.691 6.75994L121.616 7.1395C122.401 5.22534 123.504 3.94742 124.887 3.19948L124.411 2.31994L123.935 1.4404C122.064 2.45246 120.687 4.13454 119.766 6.38038L120.691 6.75994ZM124.411 2.31994L124.887 3.19948C126.335 2.41618 128.136 1.99994 130.331 1.99994V0.999941V-5.91278e-05C127.886 -5.91278e-05 125.741 0.463703 123.935 1.4404L124.411 2.31994ZM130.331 0.999941V1.99994C132.556 1.99994 134.353 2.41729 135.769 3.19616L136.251 2.31994L136.733 1.44372C134.949 0.462595 132.799 -5.91278e-05 130.331 -5.91278e-05V0.999941ZM136.251 2.31994L135.775 3.19948C137.155 3.94568 138.243 5.2196 139.002 7.12927L139.931 6.75994L140.86 6.39061C139.966 4.14028 138.601 2.4542 136.727 1.4404L136.251 2.31994ZM139.931 6.75994L139.006 7.1395C139.789 9.04843 140.211 11.7411 140.211 15.2799H141.211H142.211C142.211 11.6188 141.78 8.63145 140.856 6.38038L139.931 6.75994ZM141.211 15.2799H140.211C140.211 18.8178 139.789 21.5262 139.004 23.4645L139.931 23.8399L140.858 24.2154C141.779 21.9403 142.211 18.9421 142.211 15.2799H141.211ZM139.931 23.8399L139 23.4747C138.239 25.4149 137.144 26.7345 135.753 27.5326L136.251 28.3999L136.749 29.2673C138.611 28.1987 139.97 26.4783 140.862 24.2052L139.931 23.8399ZM136.251 28.3999L135.758 27.5299C134.344 28.331 132.552 28.7599 130.331 28.7599V29.7599V30.7599C132.804 30.7599 134.958 30.2822 136.744 29.27L136.251 28.3999ZM130.331 24.4799V25.4799C131.561 25.4799 132.672 25.1857 133.613 24.5474L133.051 23.7199L132.49 22.8925C131.937 23.2675 131.235 23.4799 130.331 23.4799V24.4799ZM133.051 23.7199L133.599 24.5564C134.648 23.8693 135.334 22.6964 135.769 21.2473L134.811 20.9599L133.853 20.6726C133.488 21.8902 133.001 22.5572 132.503 22.8835L133.051 23.7199ZM134.811 20.9599L135.763 21.2647C136.237 19.7856 136.451 17.7713 136.451 15.2799H135.451H134.451C134.451 17.6952 134.239 19.4677 133.859 20.6552L134.811 20.9599ZM135.451 15.2799H136.451C136.451 12.7667 136.238 10.758 135.76 9.32371L134.811 9.63994L133.862 9.95617C134.238 11.0819 134.451 12.8332 134.451 15.2799H135.451ZM134.811 9.63994L135.767 9.34723C135.331 7.92274 134.636 6.76974 133.557 6.13724L133.051 6.99994L132.545 7.86264C133.013 8.1368 133.491 8.74381 133.855 9.93265L134.811 9.63994ZM133.051 6.99994L133.592 6.15876C132.654 5.55578 131.55 5.27994 130.331 5.27994V6.27994V7.27994C131.245 7.27994 131.955 7.48409 132.51 7.84112L133.051 6.99994ZM130.331 6.27994V5.27994C129.132 5.27994 128.037 5.55861 127.084 6.1503L127.611 6.99994L128.138 7.84958C128.732 7.48127 129.45 7.27994 130.331 7.27994V6.27994ZM127.611 6.99994L127.105 6.13724C126.034 6.76551 125.324 7.90984 124.86 9.32954L125.811 9.63994L126.762 9.95034C127.151 8.75671 127.642 8.14104 128.117 7.86264L127.611 6.99994ZM125.811 9.63994L124.857 9.34167C124.411 10.768 124.211 12.7692 124.211 15.2799H125.211H126.211C126.211 12.8307 126.411 11.0719 126.765 9.93822L125.811 9.63994ZM125.211 15.2799H124.211C124.211 17.7685 124.412 19.7757 124.853 21.2473L125.811 20.9599L126.769 20.6726C126.41 19.4775 126.211 17.698 126.211 15.2799H125.211ZM125.811 20.9599L124.859 21.2647C125.321 22.7091 126.021 23.8738 127.063 24.5564L127.611 23.7199L128.159 22.8835C127.654 22.5528 127.155 21.8775 126.763 20.6552L125.811 20.9599ZM127.611 23.7199L127.063 24.5564C128.019 25.1828 129.121 25.4799 130.331 25.4799V24.4799V23.4799C129.461 23.4799 128.75 23.2705 128.159 22.8835L127.611 23.7199ZM149.011 11.3599L148.341 10.6178L148.335 10.6233L149.011 11.3599ZM162.011 11.3599L161.335 12.0966L161.341 12.102L162.011 11.3599ZM157.891 14.9199L157.125 15.5631L157.132 15.5709L157.138 15.5784L157.891 14.9199ZM153.171 14.9199L153.924 15.5784L153.93 15.5709L153.937 15.5631L153.171 14.9199ZM149.451 29.7599V28.7599C148.631 28.7599 148.203 28.5653 147.978 28.3529C147.763 28.1506 147.571 27.7774 147.571 27.0399H146.571H145.571C145.571 28.1158 145.859 29.1026 146.604 29.807C147.339 30.5012 148.351 30.7599 149.451 30.7599V29.7599ZM146.571 27.0399H147.571V17.4399H146.571H145.571V27.0399H146.571ZM146.571 17.4399H147.571C147.571 15.111 148.3 13.3698 149.687 12.0966L149.011 11.3599L148.335 10.6233C146.468 12.3368 145.571 14.6488 145.571 17.4399H146.571ZM149.011 11.3599L149.681 12.102C151.114 10.8079 153.031 10.1199 155.531 10.1199V9.11994V8.11994C152.644 8.11994 150.215 8.92533 148.341 10.6178L149.011 11.3599ZM155.531 9.11994V10.1199C158.032 10.1199 159.931 10.8081 161.335 12.0966L162.011 11.3599L162.687 10.6233C160.838 8.92516 158.417 8.11994 155.531 8.11994V9.11994ZM162.011 11.3599L161.341 12.102C162.752 13.3767 163.491 15.1163 163.491 17.4399H164.491H165.491C165.491 14.6436 164.577 12.3299 162.681 10.6178L162.011 11.3599ZM164.491 17.4399H163.491V27.0399H164.491H165.491V17.4399H164.491ZM164.491 27.0399H163.491C163.491 27.7774 163.299 28.1506 163.084 28.3529C162.859 28.5653 162.431 28.7599 161.611 28.7599V29.7599V30.7599C162.711 30.7599 163.723 30.5012 164.458 29.807C165.203 29.1026 165.491 28.1158 165.491 27.0399H164.491ZM161.611 29.7599V28.7599C160.791 28.7599 160.363 28.5653 160.138 28.3529C159.923 28.1506 159.731 27.7774 159.731 27.0399H158.731H157.731C157.731 28.1158 158.019 29.1026 158.764 29.807C159.499 30.5012 160.511 30.7599 161.611 30.7599V29.7599ZM158.731 27.0399H159.731V17.7599H158.731H157.731V27.0399H158.731ZM158.731 17.7599H159.731C159.731 16.3764 159.424 15.1533 158.644 14.2614L157.891 14.9199L157.138 15.5784C157.478 15.9666 157.731 16.6368 157.731 17.7599H158.731ZM157.891 14.9199L158.657 14.2767C157.875 13.3457 156.786 12.9199 155.531 12.9199V13.9199V14.9199C156.303 14.9199 156.787 15.1609 157.125 15.5631L157.891 14.9199ZM155.531 13.9199V12.9199C154.276 12.9199 153.187 13.3457 152.405 14.2767L153.171 14.9199L153.937 15.5631C154.275 15.1609 154.759 14.9199 155.531 14.9199V13.9199ZM153.171 14.9199L152.418 14.2614C151.638 15.1533 151.331 16.3764 151.331 17.7599H152.331H153.331C153.331 16.6368 153.584 15.9666 153.924 15.5784L153.171 14.9199ZM152.331 17.7599H151.331V27.0399H152.331H153.331V17.7599H152.331ZM152.331 27.0399H151.331C151.331 27.7774 151.139 28.1506 150.924 28.3529C150.699 28.5653 150.271 28.7599 149.451 28.7599V29.7599V30.7599C150.551 30.7599 151.563 30.5012 152.298 29.807C153.043 29.1026 153.331 28.1158 153.331 27.0399H152.331Z" fill="black" mask="url(#path-1-outside-1_13_3625)"/>
</svg>
