<svg width="164" height="29" viewBox="0 0 164 29" fill="none" xmlns="http://www.w3.org/2000/svg">
<path d="M5.75982 26.0799C5.75982 27.8666 4.82649 28.7599 2.95982 28.7599C2.05316 28.7599 1.33316 28.5333 0.799824 28.0799C0.266491 27.6266 -0.000175714 26.9599 -0.000175714 26.0799V9.55994C-0.000175714 6.41327 0.666491 4.03994 1.99982 2.43994C3.35982 0.813274 5.35982 -5.96046e-05 7.99983 -5.96046e-05C9.94649 -5.96046e-05 11.5598 0.39994 12.8398 1.19994C14.1198 1.99994 14.9732 3.14661 15.3998 4.63994C15.8265 3.14661 16.6798 1.99994 17.9598 1.19994C19.2398 0.39994 20.8798 -5.96046e-05 22.8798 -5.96046e-05C25.5998 -5.96046e-05 27.6132 0.786607 28.9198 2.35994C30.2265 3.90661 30.8798 6.30661 30.8798 9.55994V25.6799C30.8798 26.7733 30.6665 27.5599 30.2398 28.0399C29.8132 28.5199 29.0932 28.7599 28.0798 28.7599C27.0665 28.7599 26.3198 28.5199 25.8398 28.0399C25.3598 27.5333 25.1198 26.7466 25.1198 25.6799V9.23994C25.1198 6.59994 23.9865 5.27994 21.7198 5.27994C20.5732 5.27994 19.7198 5.66661 19.1598 6.43994C18.5998 7.18661 18.3198 8.38661 18.3198 10.0399V25.2799C18.3198 26.3733 18.1065 27.1599 17.6798 27.6399C17.2532 28.1199 16.5332 28.3599 15.5198 28.3599C14.5065 28.3599 13.7598 28.1199 13.2798 27.6399C12.7998 27.1333 12.5598 26.3466 12.5598 25.2799V10.0399C12.5598 6.86661 11.4265 5.27994 9.15982 5.27994C6.89316 5.27994 5.75982 6.59994 5.75982 9.23994V26.0799ZM44.6136 28.7599C41.9469 28.7599 39.8669 28.1466 38.3736 26.9199C36.8802 25.6666 36.1336 24.0533 36.1336 22.0799C36.1336 19.7599 37.1069 18.0799 39.0536 17.0399C41.0269 15.9999 43.9069 15.6399 47.6936 15.9599C47.5069 14.7333 47.1202 13.9066 46.5336 13.4799C45.9469 13.0266 45.2402 12.7999 44.4136 12.7999C43.7469 12.7999 43.1869 12.8399 42.7336 12.9199C42.3069 12.9733 41.9069 13.0399 41.5336 13.1199C41.1602 13.1999 40.7069 13.2399 40.1736 13.2399C39.4536 13.2399 38.8802 13.1199 38.4536 12.8799C38.0269 12.6133 37.8136 12.0933 37.8136 11.3199C37.8136 10.2266 38.2802 9.42661 39.2136 8.91994C40.1736 8.38661 41.6802 8.11994 43.7336 8.11994C46.9869 8.11994 49.4002 9.05327 50.9736 10.9199C52.5469 12.7599 53.3336 15.2266 53.3336 18.3199C53.3336 21.8933 52.6802 24.5333 51.3736 26.2399C50.0936 27.9199 47.8402 28.7599 44.6136 28.7599ZM41.8936 22.0799C41.8936 23.5999 42.9202 24.3599 44.9736 24.3599C45.6402 24.3599 46.1602 24.2399 46.5336 23.9999C46.9069 23.7599 47.1736 23.2799 47.3336 22.5599C47.5202 21.8399 47.6536 20.7599 47.7336 19.3199C47.6002 19.4533 47.4269 19.5466 47.2136 19.5999C47.0002 19.6533 46.7869 19.6799 46.5736 19.6799C44.8136 19.6799 43.5869 19.8533 42.8936 20.1999C42.2269 20.5199 41.8936 21.1466 41.8936 22.0799ZM64.3383 14.5599C64.3383 17.7333 64.7249 20.0133 65.4983 21.3999C66.2716 22.7599 67.4183 23.4399 68.9383 23.4399C69.8983 23.4399 70.7383 23.3733 71.4583 23.2399C72.1783 23.0799 72.8316 22.9999 73.4183 22.9999C74.4849 22.9999 75.2583 23.2266 75.7383 23.6799C76.2183 24.1066 76.4583 24.6666 76.4583 25.3599C76.4583 26.2666 76.1249 26.9599 75.4583 27.4399C74.8183 27.9199 73.9916 28.2533 72.9783 28.4399C71.9916 28.6266 70.9783 28.7199 69.9383 28.7199C67.0583 28.7199 64.7649 28.1866 63.0583 27.1199C61.3783 26.0533 60.1649 24.4799 59.4183 22.3999C58.6983 20.2933 58.3383 17.6799 58.3383 14.5599C58.3383 11.4399 58.6983 8.79994 59.4183 6.63994C60.1649 4.45327 61.3783 2.79994 63.0583 1.67994C64.7649 0.55994 67.0583 -5.96046e-05 69.9383 -5.96046e-05C70.9783 -5.96046e-05 71.9916 0.0932733 72.9783 0.279939C73.9916 0.466607 74.8183 0.79994 75.4583 1.27994C76.1249 1.75994 76.4583 2.45327 76.4583 3.35994C76.4583 4.02661 76.2183 4.58661 75.7383 5.03994C75.2583 5.49327 74.4849 5.71994 73.4183 5.71994C72.8316 5.71994 72.1783 5.65327 71.4583 5.51994C70.7383 5.35994 69.8983 5.27994 68.9383 5.27994C67.0716 5.27994 65.8316 6.03994 65.2183 7.55994C64.6316 9.05327 64.3383 11.3866 64.3383 14.5599ZM87.1495 28.7599C84.4828 28.7599 82.4028 28.1466 80.9095 26.9199C79.4162 25.6666 78.6695 24.0533 78.6695 22.0799C78.6695 19.7599 79.6428 18.0799 81.5895 17.0399C83.5628 15.9999 86.4428 15.6399 90.2295 15.9599C90.0428 14.7333 89.6562 13.9066 89.0695 13.4799C88.4828 13.0266 87.7762 12.7999 86.9495 12.7999C86.2828 12.7999 85.7228 12.8399 85.2695 12.9199C84.8428 12.9733 84.4428 13.0399 84.0695 13.1199C83.6962 13.1999 83.2428 13.2399 82.7095 13.2399C81.9895 13.2399 81.4162 13.1199 80.9895 12.8799C80.5628 12.6133 80.3495 12.0933 80.3495 11.3199C80.3495 10.2266 80.8162 9.42661 81.7495 8.91994C82.7095 8.38661 84.2162 8.11994 86.2695 8.11994C89.5228 8.11994 91.9362 9.05327 93.5095 10.9199C95.0828 12.7599 95.8695 15.2266 95.8695 18.3199C95.8695 21.8933 95.2162 24.5333 93.9095 26.2399C92.6295 27.9199 90.3762 28.7599 87.1495 28.7599ZM84.4295 22.0799C84.4295 23.5999 85.4562 24.3599 87.5095 24.3599C88.1762 24.3599 88.6962 24.2399 89.0695 23.9999C89.4428 23.7599 89.7095 23.2799 89.8695 22.5599C90.0562 21.8399 90.1895 20.7599 90.2695 19.3199C90.1362 19.4533 89.9628 19.5466 89.7495 19.5999C89.5362 19.6533 89.3228 19.6799 89.1095 19.6799C87.3495 19.6799 86.1228 19.8533 85.4295 20.1999C84.7628 20.5199 84.4295 21.1466 84.4295 22.0799ZM104.196 28.7599C102.276 28.7599 101.316 27.8533 101.316 26.0399V10.8799C101.316 9.03994 102.276 8.11994 104.196 8.11994C105.156 8.11994 105.849 8.33327 106.276 8.75994C106.703 9.15994 106.916 9.82661 106.916 10.7599C107.396 9.87994 108.076 9.22661 108.956 8.79994C109.863 8.34661 110.916 8.11994 112.116 8.11994C114.409 8.11994 115.556 9.11994 115.556 11.1199C115.556 11.8666 115.276 12.4266 114.716 12.7999C114.156 13.1733 113.236 13.3599 111.956 13.3599C110.703 13.3599 109.716 13.4799 108.996 13.7199C108.276 13.9333 107.769 14.3466 107.476 14.9599C107.209 15.5466 107.076 16.3999 107.076 17.5199V26.0399C107.076 27.8533 106.116 28.7599 104.196 28.7599ZM129.331 28.7599C127.011 28.7599 125.037 28.3066 123.411 27.3999C121.784 26.4666 120.544 24.9466 119.691 22.8399C118.864 20.7333 118.451 17.8799 118.451 14.2799C118.451 10.6799 118.864 7.83994 119.691 5.75994C120.544 3.67994 121.784 2.19994 123.411 1.31994C125.037 0.43994 127.011 -5.96046e-05 129.331 -5.96046e-05C131.677 -5.96046e-05 133.651 0.43994 135.251 1.31994C136.877 2.19994 138.104 3.67994 138.931 5.75994C139.784 7.83994 140.211 10.6799 140.211 14.2799C140.211 17.8799 139.784 20.7333 138.931 22.8399C138.104 24.9466 136.877 26.4666 135.251 27.3999C133.651 28.3066 131.677 28.7599 129.331 28.7599ZM129.331 23.4799C130.397 23.4799 131.304 23.2266 132.051 22.7199C132.824 22.2133 133.411 21.2933 133.811 19.9599C134.237 18.6266 134.451 16.7333 134.451 14.2799C134.451 11.7999 134.237 9.91994 133.811 8.63994C133.411 7.33327 132.824 6.45327 132.051 5.99994C131.304 5.51994 130.397 5.27994 129.331 5.27994C128.291 5.27994 127.384 5.51994 126.611 5.99994C125.837 6.45327 125.237 7.33327 124.811 8.63994C124.411 9.91994 124.211 11.7999 124.211 14.2799C124.211 16.7333 124.411 18.6266 124.811 19.9599C125.237 21.2933 125.837 22.2133 126.611 22.7199C127.384 23.2266 128.291 23.4799 129.331 23.4799ZM148.451 28.7599C146.531 28.7599 145.571 27.8533 145.571 26.0399V16.4399C145.571 13.8799 146.384 11.8533 148.011 10.3599C149.664 8.86661 151.837 8.11994 154.531 8.11994C157.224 8.11994 159.384 8.86661 161.011 10.3599C162.664 11.8533 163.491 13.8799 163.491 16.4399V26.0399C163.491 27.8533 162.531 28.7599 160.611 28.7599C158.691 28.7599 157.731 27.8533 157.731 26.0399V16.7599C157.731 15.5066 157.451 14.5599 156.891 13.9199C156.331 13.2533 155.544 12.9199 154.531 12.9199C153.517 12.9199 152.731 13.2533 152.171 13.9199C151.611 14.5599 151.331 15.5066 151.331 16.7599V26.0399C151.331 27.8533 150.371 28.7599 148.451 28.7599Z" fill="white"/>
</svg>
